<svg width="106" height="42" viewBox="0 0 106 42" fill="none" xmlns="http://www.w3.org/2000/svg">
<path d="M4.57812 17.5938C4.59896 16.3542 4.73958 15.375 5 14.6562C5.26042 13.9375 5.79167 13.1406 6.59375 12.2656L8.64062 10.1562C9.51562 9.16667 9.95312 8.10417 9.95312 6.96875C9.95312 5.875 9.66667 5.02083 9.09375 4.40625C8.52083 3.78125 7.6875 3.46875 6.59375 3.46875C5.53125 3.46875 4.67708 3.75 4.03125 4.3125C3.38542 4.875 3.0625 5.63021 3.0625 6.57812H0.171875C0.192708 4.89062 0.791667 3.53125 1.96875 2.5C3.15625 1.45833 4.69792 0.9375 6.59375 0.9375C8.5625 0.9375 10.0938 1.46875 11.1875 2.53125C12.2917 3.58333 12.8438 5.03125 12.8438 6.875C12.8438 8.69792 12 10.4948 10.3125 12.2656L8.60938 13.9531C7.84896 14.7969 7.46875 16.0104 7.46875 17.5938H4.57812ZM4.45312 22.5469C4.45312 22.0781 4.59375 21.6875 4.875 21.375C5.16667 21.0521 5.59375 20.8906 6.15625 20.8906C6.71875 20.8906 7.14583 21.0521 7.4375 21.375C7.72917 21.6875 7.875 22.0781 7.875 22.5469C7.875 23.0156 7.72917 23.4062 7.4375 23.7188C7.14583 24.0208 6.71875 24.1719 6.15625 24.1719C5.59375 24.1719 5.16667 24.0208 4.875 23.7188C4.59375 23.4062 4.45312 23.0156 4.45312 22.5469ZM26.75 22.3281C25.625 23.651 23.974 24.3125 21.7969 24.3125C19.9948 24.3125 18.6198 23.7917 17.6719 22.75C16.7344 21.6979 16.2604 20.1458 16.25 18.0938V7.09375H19.1406V18.0156C19.1406 20.5781 20.1823 21.8594 22.2656 21.8594C24.474 21.8594 25.9427 21.0365 26.6719 19.3906V7.09375H29.5625V24H26.8125L26.75 22.3281ZM48.2812 15.7344C48.2812 18.3177 47.6875 20.3958 46.5 21.9688C45.3125 23.5312 43.7188 24.3125 41.7188 24.3125C39.5833 24.3125 37.9323 23.5573 36.7656 22.0469L36.625 24H33.9688V0H36.8594V8.95312C38.026 7.50521 39.6354 6.78125 41.6875 6.78125C43.7396 6.78125 45.349 7.55729 46.5156 9.10938C47.6927 10.6615 48.2812 12.7865 48.2812 15.4844V15.7344ZM45.3906 15.4062C45.3906 13.4375 45.0104 11.9167 44.25 10.8438C43.4896 9.77083 42.3958 9.23438 40.9688 9.23438C39.0625 9.23438 37.6927 10.1198 36.8594 11.8906V19.2031C37.7448 20.974 39.125 21.8594 41 21.8594C42.3854 21.8594 43.4635 21.3229 44.2344 20.25C45.0052 19.1771 45.3906 17.5625 45.3906 15.4062Z" fill="#FAF9F9"/>
<path d="M65.7646 28.0244C65.7646 30.085 65.4375 31.8623 64.7832 33.3564C64.1289 34.8408 63.2109 36.0029 62.0293 36.8428L65.8379 39.8311L63.9189 41.6035L59.4219 38.0293C58.7187 38.2051 57.9766 38.293 57.1953 38.293C55.5156 38.293 54.0264 37.8828 52.7275 37.0625C51.4287 36.2324 50.418 35.0557 49.6953 33.5322C48.9824 31.999 48.6162 30.2266 48.5967 28.2148V26.6768C48.5967 24.626 48.9531 22.8145 49.666 21.2422C50.3789 19.6699 51.3848 18.4687 52.6836 17.6387C53.9922 16.7988 55.4863 16.3789 57.166 16.3789C58.8848 16.3789 60.3936 16.7939 61.6924 17.624C63.001 18.4541 64.0068 19.6504 64.71 21.2129C65.4131 22.7656 65.7646 24.582 65.7646 26.6621V28.0244ZM62.9521 26.6475C62.9521 24.1377 62.4492 22.2041 61.4434 20.8467C60.4473 19.4795 59.0215 18.7959 57.166 18.7959C55.3984 18.7959 54.002 19.4746 52.9766 20.832C51.9609 22.1797 51.4385 24.0547 51.4092 26.457V28.0244C51.4092 30.4658 51.917 32.3896 52.9326 33.7959C53.958 35.2021 55.3789 35.9053 57.1953 35.9053C59.0117 35.9053 60.418 35.2461 61.4141 33.9277C62.4102 32.5996 62.9229 30.7002 62.9521 28.2295V26.6475ZM79.4609 36.4326C78.4062 37.6728 76.8584 38.293 74.8174 38.293C73.1279 38.293 71.8389 37.8047 70.9502 36.8281C70.0713 35.8418 69.627 34.3867 69.6172 32.4629V22.1504H72.3271V32.3896C72.3271 34.792 73.3037 35.9932 75.2568 35.9932C77.3271 35.9932 78.7041 35.2217 79.3877 33.6787V22.1504H82.0977V38H79.5195L79.4609 36.4326ZM89.1728 38H86.4629V22.1504H89.1728V38ZM86.2432 17.9463C86.2432 17.5068 86.375 17.1357 86.6387 16.833C86.9121 16.5303 87.3125 16.3789 87.8398 16.3789C88.3672 16.3789 88.7676 16.5303 89.041 16.833C89.3145 17.1357 89.4512 17.5068 89.4512 17.9463C89.4512 18.3857 89.3145 18.752 89.041 19.0449C88.7676 19.3379 88.3672 19.4844 87.8398 19.4844C87.3125 19.4844 86.9121 19.3379 86.6387 19.0449C86.375 18.752 86.2432 18.3857 86.2432 17.9463ZM96.0723 35.7881H105.345V38H92.7617V36.0078L101.507 24.3916H92.8936V22.1504H104.905V24.0693L96.0723 35.7881Z" fill="#FAF9F9"/>
</svg>
